<svg width="11" height="12" viewBox="0 0 11 12" fill="none" xmlns="http://www.w3.org/2000/svg">
<path fill-rule="evenodd" clip-rule="evenodd" d="M6.90625 2.45485e-07H4.70903C3.71357 -1.05878e-05 2.9251 -1.6038e-05 2.30803 0.0829511C1.67297 0.168329 1.15896 0.348227 0.753589 0.753589C0.348227 1.15896 0.168329 1.67297 0.0829511 2.30803C-1.59734e-05 2.9251 -1.05879e-05 3.71357 2.4546e-07 4.70902V7.98958C2.4546e-07 9.00369 0.743194 9.84425 1.71465 9.9963C1.78939 10.4101 1.93241 10.7633 2.21994 11.0509C2.54598 11.377 2.95649 11.5172 3.44405 11.5827C3.91366 11.6458 4.51073 11.6458 5.25151 11.6458H6.93599C7.67677 11.6458 8.27385 11.6458 8.74347 11.5827C9.23103 11.5172 9.6415 11.377 9.96759 11.0509C10.2936 10.7248 10.4339 10.3144 10.4994 9.82681C10.5625 9.35718 10.5625 8.7601 10.5625 8.01932V5.25151C10.5625 4.51075 10.5625 3.91366 10.4994 3.44405C10.4339 2.95649 10.2936 2.54598 9.96759 2.21994C9.68002 1.93241 9.3268 1.78939 8.91296 1.71465C8.76092 0.743194 7.92036 2.45485e-07 6.90625 2.45485e-07ZM8.05962 1.63647C7.8956 1.15712 7.4412 0.8125 6.90625 0.8125H4.73958C3.70672 0.8125 2.97294 0.813362 2.41629 0.888204C1.87133 0.961469 1.55735 1.09887 1.32811 1.32811C1.09887 1.55735 0.961469 1.87133 0.888204 2.41629C0.813362 2.97294 0.8125 3.70672 0.8125 4.73958V7.98958C0.8125 8.52453 1.15713 8.97894 1.63647 9.14295C1.62499 8.81259 1.62499 8.439 1.625 8.01932V5.25151C1.62499 4.51075 1.62498 3.91366 1.68812 3.44405C1.75367 2.95649 1.8939 2.54598 2.21994 2.21994C2.54598 1.8939 2.95649 1.75367 3.44405 1.68812C3.91366 1.62498 4.51073 1.62499 5.25151 1.625H6.93599C7.35567 1.62499 7.72926 1.62499 8.05962 1.63647ZM2.79446 2.79446C2.94438 2.64455 3.15486 2.54681 3.55232 2.49337C3.96146 2.43836 4.50374 2.4375 5.28125 2.4375H6.90625C7.68376 2.4375 8.22602 2.43836 8.6352 2.49337C9.03267 2.54681 9.24311 2.64455 9.39304 2.79446C9.54298 2.94438 9.64069 3.15486 9.69415 3.55232C9.74913 3.96146 9.75 4.50373 9.75 5.28125V7.98958C9.75 8.76709 9.74913 9.30935 9.69415 9.71853C9.64069 10.116 9.54298 10.3264 9.39304 10.4764C9.24311 10.6263 9.03267 10.724 8.6352 10.7775C8.22602 10.8325 7.68376 10.8333 6.90625 10.8333H5.28125C4.50374 10.8333 3.96146 10.8325 3.55232 10.7775C3.15486 10.724 2.94438 10.6263 2.79446 10.4764C2.64455 10.3264 2.54681 10.116 2.49337 9.71853C2.43836 9.30935 2.4375 8.76709 2.4375 7.98958V5.28125C2.4375 4.50373 2.43836 3.96146 2.49337 3.55232C2.54681 3.15486 2.64455 2.94438 2.79446 2.79446Z" fill="#1C274C"/>
</svg>
