<svg width="6" height="6" viewBox="0 0 6 6" fill="none" xmlns="http://www.w3.org/2000/svg">
<path d="M0.114609 5.33203C-0.0382031 5.48485 -0.0382031 5.73257 0.114609 5.88539C0.267422 6.0382 0.515186 6.0382 0.667998 5.88539L0.114609 5.33203ZM3.27668 3.27668C3.4295 3.12387 3.4295 2.87614 3.27668 2.72333C3.12387 2.57051 2.87614 2.57051 2.72333 2.72333L3.27668 3.27668ZM2.72333 2.72333C2.57051 2.87614 2.57051 3.12387 2.72333 3.27668C2.87614 3.4295 3.12387 3.4295 3.27668 3.27668L2.72333 2.72333ZM5.88539 0.667999C6.0382 0.515186 6.0382 0.267422 5.88539 0.114609C5.73257 -0.0382031 5.48485 -0.0382031 5.33203 0.114609L5.88539 0.667999ZM3.27668 2.72333C3.12387 2.57051 2.87614 2.57051 2.72333 2.72333C2.57051 2.87614 2.57051 3.12387 2.72333 3.27668L3.27668 2.72333ZM5.33203 5.88539C5.48485 6.0382 5.73257 6.0382 5.88539 5.88539C6.0382 5.73257 6.0382 5.48485 5.88539 5.33203L5.33203 5.88539ZM2.72333 3.27668C2.87614 3.4295 3.12387 3.4295 3.27668 3.27668C3.4295 3.12387 3.4295 2.87614 3.27668 2.72333L2.72333 3.27668ZM0.667998 0.114609C0.515186 -0.0382031 0.267422 -0.0382031 0.114609 0.114609C-0.0382031 0.267422 -0.0382031 0.515186 0.114609 0.667999L0.667998 0.114609ZM0.667998 5.88539L3.27668 3.27668L2.72333 2.72333L0.114609 5.33203L0.667998 5.88539ZM3.27668 3.27668L5.88539 0.667999L5.33203 0.114609L2.72333 2.72333L3.27668 3.27668ZM2.72333 3.27668L5.33203 5.88539L5.88539 5.33203L3.27668 2.72333L2.72333 3.27668ZM3.27668 2.72333L0.667998 0.114609L0.114609 0.667999L2.72333 3.27668L3.27668 2.72333Z" fill="white"/>
</svg>
