<svg width="30" height="30" viewBox="0 0 30 30" fill="none" xmlns="http://www.w3.org/2000/svg">
<rect x="0.5" y="0.5" width="29" height="29" rx="2.5" stroke="#9747FF"/>
<path fill-rule="evenodd" clip-rule="evenodd" d="M12.6411 8.49467C11.4577 8.36249 10.2326 8.36249 9.04915 8.49467C8.76158 8.52679 8.5348 8.75435 8.50245 9.03072C8.36112 10.2383 8.36112 11.4582 8.50245 12.6657C8.5348 12.9421 8.76158 13.1696 9.04915 13.2018C10.2326 13.3339 11.4577 13.3339 12.6411 13.2018C12.9287 13.1696 13.1555 12.9421 13.1878 12.6657C13.3292 11.4582 13.3292 10.2383 13.1878 9.03072C13.1555 8.75435 12.9287 8.52679 12.6411 8.49467ZM8.89404 7.10777C10.1806 6.96408 11.5097 6.96408 12.7963 7.10777C13.7187 7.2108 14.4658 7.93647 14.5748 8.8686C14.7288 10.1839 14.7288 11.5126 14.5748 12.8278C14.4658 13.76 13.7187 14.4856 12.7963 14.5887C11.5097 14.7324 10.1806 14.7324 8.89404 14.5887C7.9716 14.4856 7.22454 13.76 7.11545 12.8278C6.96152 11.5126 6.96152 10.1839 7.11545 8.8686C7.22454 7.93647 7.97159 7.2108 8.89404 7.10777Z" fill="#9747FF"/>
<path fill-rule="evenodd" clip-rule="evenodd" d="M12.6411 17.7982C11.4577 17.6661 10.2326 17.6661 9.04915 17.7982C8.76158 17.8304 8.5348 18.0579 8.50245 18.3343C8.36112 19.5418 8.36112 20.7617 8.50245 21.9693C8.5348 22.2457 8.76158 22.4732 9.04915 22.5053C10.2326 22.6375 11.4577 22.6375 12.6411 22.5053C12.9287 22.4732 13.1555 22.2457 13.1878 21.9693C13.3292 20.7617 13.3292 19.5418 13.1878 18.3343C13.1555 18.0579 12.9287 17.8304 12.6411 17.7982ZM8.89404 16.4113C10.1806 16.2676 11.5097 16.2676 12.7963 16.4113C13.7187 16.5144 14.4658 17.24 14.5748 18.1722C14.7288 19.4874 14.7288 20.8161 14.5748 22.1314C14.4658 23.0635 13.7187 23.7892 12.7963 23.8922C11.5097 24.0359 10.1806 24.0359 8.89404 23.8922C7.9716 23.7892 7.22454 23.0635 7.11545 22.1314C6.96152 20.8161 6.96152 19.4874 7.11545 18.1722C7.22454 17.24 7.97159 16.5144 8.89404 16.4113Z" fill="#9747FF"/>
<path fill-rule="evenodd" clip-rule="evenodd" d="M21.9509 8.49467C20.7674 8.36249 19.5423 8.36249 18.3589 8.49467C18.0713 8.52679 17.8445 8.75435 17.8122 9.03072C17.6708 10.2383 17.6708 11.4582 17.8122 12.6657C17.8445 12.9421 18.0713 13.1696 18.3589 13.2018C19.5423 13.3339 20.7674 13.3339 21.9509 13.2018C22.2384 13.1696 22.4652 12.9421 22.4976 12.6657C22.6389 11.4582 22.6389 10.2383 22.4976 9.03072C22.4652 8.75435 22.2384 8.52679 21.9509 8.49467ZM18.2037 7.10777C19.4903 6.96408 20.8194 6.96408 22.106 7.10777C23.0284 7.2108 23.7755 7.93647 23.8846 8.8686C24.0385 10.1839 24.0385 11.5126 23.8846 12.8278C23.7755 13.76 23.0284 14.4856 22.106 14.5887C20.8194 14.7324 19.4903 14.7324 18.2037 14.5887C17.2813 14.4856 16.5342 13.76 16.4252 12.8278C16.2712 11.5126 16.2712 10.1839 16.4252 8.8686C16.5342 7.93647 17.2813 7.2108 18.2037 7.10777Z" fill="#9747FF"/>
<path fill-rule="evenodd" clip-rule="evenodd" d="M21.9509 17.7982C20.7674 17.6661 19.5423 17.6661 18.3589 17.7982C18.0713 17.8304 17.8445 18.0579 17.8122 18.3343C17.6708 19.5418 17.6708 20.7617 17.8122 21.9693C17.8445 22.2457 18.0713 22.4732 18.3589 22.5053C19.5423 22.6375 20.7674 22.6375 21.9509 22.5053C22.2384 22.4732 22.4652 22.2457 22.4976 21.9693C22.6389 20.7617 22.6389 19.5418 22.4976 18.3343C22.4652 18.0579 22.2384 17.8304 21.9509 17.7982ZM18.2037 16.4113C19.4903 16.2676 20.8194 16.2676 22.106 16.4113C23.0284 16.5144 23.7755 17.24 23.8846 18.1722C24.0385 19.4874 24.0385 20.8161 23.8846 22.1314C23.7755 23.0635 23.0284 23.7892 22.106 23.8922C20.8194 24.0359 19.4903 24.0359 18.2037 23.8922C17.2813 23.7892 16.5342 23.0635 16.4252 22.1314C16.2712 20.8161 16.2712 19.4874 16.4252 18.1722C16.5342 17.24 17.2813 16.5144 18.2037 16.4113Z" fill="#9747FF"/>
</svg>
