<svg width="30" height="30" viewBox="0 0 30 30" fill="none" xmlns="http://www.w3.org/2000/svg">
<rect x="0.5" y="0.5" width="29" height="29" rx="2.5" stroke="#9747FF"/>
<path fill-rule="evenodd" clip-rule="evenodd" d="M22.75 15C22.75 14.5858 22.4142 14.25 22 14.25H8C7.58579 14.25 7.25 14.5858 7.25 15C7.25 15.4142 7.58579 15.75 8 15.75H22C22.4142 15.75 22.75 15.4142 22.75 15Z" fill="#9747FF"/>
<path fill-rule="evenodd" clip-rule="evenodd" d="M22.75 10C22.75 9.58579 22.4142 9.25 22 9.25H8C7.58579 9.25 7.25 9.58579 7.25 10C7.25 10.4142 7.58579 10.75 8 10.75H22C22.4142 10.75 22.75 10.4142 22.75 10Z" fill="#9747FF"/>
<path fill-rule="evenodd" clip-rule="evenodd" d="M22.75 20C22.75 19.5858 22.4142 19.25 22 19.25H8C7.58579 19.25 7.25 19.5858 7.25 20C7.25 20.4142 7.58579 20.75 8 20.75H22C22.4142 20.75 22.75 20.4142 22.75 20Z" fill="#9747FF"/>
</svg>
